Coordinates
version=1
nRows=9
nColumns=36
inDegrees=yes

Units are S.I. units (second, meters, Newtons, ...)
If the header above contains a line with 'inDegrees', this indicates whether rotational values are in degrees (yes) or radians (no).

endheader
time	pelvis_tilt	pelvis_list	pelvis_rotation	pelvis_tx	pelvis_ty	pelvis_tz	hip_flexion_r	hip_adduction_r	hip_rotation_r	knee_angle_r	knee_angle_r_beta	ankle_angle_r	subtalar_angle_r	mtp_angle_r	hip_flexion_l	hip_adduction_l	hip_rotation_l	knee_angle_l	knee_angle_l_beta	ankle_angle_l	subtalar_angle_l	mtp_angle_l	lumbar_extension	lumbar_bending	lumbar_rotation	arm_flex_r	arm_add_r	arm_rot_r	elbow_flex_r	pro_sup_r	arm_flex_l	arm_add_l	arm_rot_l	elbow_flex_l	pro_sup_l
      3.50416670	      2.75229234	      1.58372392	      5.65420456	      0.26084061	      0.99054753	     -0.01310799	      0.61470971	     -3.47149863	     -2.49164409	      8.56869085	      0.14955187	     11.36316622	    -33.06379180	     -7.49999987	      5.97199756	     -5.39489534	      4.98248360	     11.57102671	      0.20195251	     13.99596234	    -10.62822673	     -7.49999987	     -8.62450607	     -0.48646688	     -0.97531851	      5.12534347	    -39.23327098	      4.98222686	     41.01708321	     60.45142689	     24.69575159	    -19.49307326	     42.77434143	     39.83067107	     48.14012712
      3.50833330	      2.89894782	      1.57453465	      5.59505948	      0.26206273	      0.99186415	     -0.01281191	      0.41208396	     -3.47039746	     -2.47026334	      8.51518627	      0.14861804	     11.31918723	    -33.13625211	     -7.49999987	      5.62287094	     -5.41816111	      4.84797710	     11.32026447	      0.19757589	     14.08284042	    -10.58299767	     -7.49999987	     -8.54734111	     -0.44193932	     -1.01491191	      5.28463491	    -39.52462296	      4.05971328	     41.90026279	     60.46549461	     24.88227342	    -19.60612535	     41.84820371	     40.02743955	     48.58390273
      3.51250000	      3.04932100	      1.58401551	      5.55358542	      0.26175100	      0.99188031	     -0.01294405	      0.20640492	     -3.48577831	     -2.53524426	      8.44914634	      0.14746542	     11.29865054	    -33.17411702	     -7.49999987	      5.31233589	     -5.41712947	      4.81649212	     11.12194136	      0.19411450	     14.16667990	    -10.54152143	     -7.49999987	     -8.49606814	     -0.43222319	     -1.01913323	      5.49396553	    -39.88894912	      3.34793664	     42.79248891	     60.61182754	     25.18047107	    -19.72044796	     41.27841370	     40.13178851	     48.48690335
      3.51666670	      3.04766391	      1.56249802	      5.55499608	      0.26274401	      0.98793170	     -0.01338078	      0.18533275	     -3.47429387	     -2.47249111	      8.42938919	      0.14712060	     11.34808896	    -33.23729051	     -7.49999987	      5.25073546	     -5.45008855	      4.62037702	     11.07753547	      0.19333947	     14.47273142	    -10.29965625	     -7.49999987	     -8.22246746	     -0.44543534	     -1.05875814	      5.63450796	    -40.37342452	      2.69731812	     43.71742380	     60.63318417	     25.42738857	    -19.89298755	     40.59370003	     40.34213861	     48.45622325
      3.52083330	      3.09723739	      1.53400393	      5.51177180	      0.26085814	      0.98668648	     -0.01261301	      0.18535685	     -3.42929799	     -2.11773631	      8.53218919	      0.14891479	     11.75525111	    -33.15387512	     -7.49999987	      5.17048773	     -5.48940473	      4.65526293	     11.02969621	      0.19250451	     14.69284308	    -10.35424246	     -7.49999987	     -8.04753730	     -0.42501557	     -0.95010855	      5.82734037	    -40.88673879	      2.18455443	     44.73371201	     60.79306634	     25.94765110	    -19.96074588	     40.04652099	     40.47388943	     48.53271306
      3.52500000	      3.07377253	      1.50462218	      5.48122918	      0.26163380	      0.98834751	     -0.01256130	      0.27430442	     -3.39762599	     -1.74776667	      8.69349519	      0.15173011	     11.99080013	    -33.14463005	     -7.49999987	      5.16022304	     -5.55437302	      4.46214883	     10.98803342	      0.19177736	     15.06056073	     -9.89171929	     -7.49999987	     -7.69700500	     -0.45910780	     -0.94436521	      6.26290307	    -41.10612909	      1.47209693	     45.09750562	     60.81267217	     26.25896758	    -19.89464970	     39.13281073	     40.17486697	     48.81889572
      3.52916670	      3.02276095	      1.48875883	      5.49738286	      0.26098355	      0.99289144	     -0.01481544	      0.23845598	     -3.41345852	     -1.63140312	      8.64913691	      0.15095592	     11.98751911	    -33.09830600	     -7.49999987	      5.15963397	     -5.51524590	      4.50915521	     10.91698129	      0.19053727	     15.01987176	     -9.90458246	     -7.49999987	     -7.42690563	     -0.50532709	     -0.89968556	      6.63335245	    -41.47487412	      1.34139804	     45.33267633	     60.81619215	     26.70157179	    -19.93297469	     39.03115586	     40.23313217	     48.80732528
      3.53333330	      3.13635617	      1.47093476	      5.43007580	      0.26247127	      0.99158661	     -0.01305257	      0.04368751	     -3.36775076	     -1.28074461	      8.62724880	      0.15057390	     12.01357175	    -33.06319356	     -7.49999987	      4.91340604	     -5.51940255	      4.54926564	     10.79088588	      0.18833649	     14.80177872	    -10.37363687	     -7.49999987	     -7.36754408	     -0.48704566	     -0.71733098	      6.33231976	    -41.95765228	      0.38545999	     47.02110932	     60.89607245	     26.96969406	    -19.84206786	     37.96933551	     40.20090000	     49.05978500
      3.53750000	      3.14441853	      1.45697714	      5.40213532	      0.26234548	      0.98991409	     -0.01612910	     -0.02729170	     -3.41766331	     -1.18014194	      8.66040369	      0.15115256	     11.87089254	    -33.07396168	     -7.49999987	      4.82843996	     -5.47212030	      4.32220855	     10.76780273	      0.18793361	     14.90623134	    -10.14406117	     -7.49999987	     -7.12141683	     -0.46035631	     -0.65929083	      6.50874537	    -42.48013109	     -0.30798132	     47.80508484	     60.82867429	     27.21148669	    -19.77848510	     37.20710403	     40.34429242	     49.84984664
